<svg width="500" height="500" viewBox="0 0 500 500" fill="none" xmlns="http://www.w3.org/2000/svg">
<g clip-path="url(#clip0_140_10955)">
<path d="M438.471 0H61.5294C27.5476 0 0 27.5476 0 61.5294V438.471C0 472.452 27.5476 500 61.5294 500H438.471C472.452 500 500 472.452 500 438.471V61.5294C500 27.5476 472.452 0 438.471 0Z" fill="black"/>
<path d="M355.949 144.278C355.949 158.877 350.032 172.091 340.467 181.656C330.901 191.222 317.681 197.139 303.089 197.139H250.007V91.4105H303.089C332.287 91.4105 355.956 115.08 355.956 144.278H355.949Z" fill="#FF7262"/>
<path d="M250 91.4105V197.139H196.918C167.72 197.139 144.051 173.47 144.051 144.271C144.051 129.672 149.968 116.459 159.533 106.893C169.099 97.3278 182.319 91.4105 196.918 91.4105H250Z" fill="#F24E1E"/>
<path d="M250 197.146V302.874H196.918C167.72 302.874 144.051 279.205 144.051 250.007C144.051 235.408 149.968 222.194 159.533 212.629C169.099 203.063 182.319 197.146 196.918 197.146H250Z" fill="#A259FF"/>
<path d="M250 302.861V355.809C250 384.96 226.371 408.59 197.219 408.59C168.075 408.59 144.191 385.121 144.051 355.976C143.984 341.277 149.914 327.963 159.533 318.344C169.099 308.778 182.319 302.861 196.918 302.861H250Z" fill="#0ACF83"/>
<path d="M340.432 287.47C361.12 266.782 361.12 233.24 340.432 212.552C319.744 191.864 286.203 191.864 265.515 212.552C244.827 233.24 244.827 266.782 265.515 287.47C286.203 308.158 319.744 308.158 340.432 287.47Z" fill="#1ABCFE"/>
</g>
<defs>
<clipPath id="clip0_140_10955">
<rect width="500" height="500" fill="white"/>
</clipPath>
</defs>
</svg>
